<svg xmlns="http://www.w3.org/2000/svg" width="53.638" height="53.29" viewBox="0 0 53.638 53.29">
  <g id="samurai_1_" data-name="samurai (1)" transform="translate(-33.019 -36.088)">
    <path id="Path_162" data-name="Path 162" d="M146.138,424.186a6.838,6.838,0,0,1-1.4-4.376,2.854,2.854,0,0,1,1.011-2.434c1.017-.884.938-.9,1.969-.008a15.313,15.313,0,0,0,6.947,3.473,15.806,15.806,0,0,0,13.7-3.179c.448-.356.87-.745,1.391-1.195.573.6,1.15,1.2,1.72,1.811a.444.444,0,0,1,.112.261c.083,1.97.076,3.922-1.292,5.6-.615.043-1.212.055-1.809.055C161.056,424.2,153.625,424.2,146.138,424.186Z" transform="translate(-98.335 -334.819)" fill="#bc002d"/>
    <path id="Path_163" data-name="Path 163" d="M192.092,36.089a9.372,9.372,0,0,1,3.4,4.888,9.813,9.813,0,0,1-.365,6.6,9.138,9.138,0,0,1-4.8,4.961,9.3,9.3,0,0,1-5.111.816,10.075,10.075,0,0,1-3.878-1.286,9.314,9.314,0,0,1-4.1-4.945,9.9,9.9,0,0,1-.019-6.719,3.947,3.947,0,0,1,.248-.486,3.976,3.976,0,0,1,1.24,2.945,8.189,8.189,0,0,0,.882,4.53,7.717,7.717,0,0,0,5.674,3.913,7.623,7.623,0,0,0,7.889-4.338,7.362,7.362,0,0,0-.689-7.511,3.268,3.268,0,0,1-.569-3.311A.248.248,0,0,1,192.092,36.089Z" transform="translate(-126.416)" fill="#bc002d"/>
    <path id="Path_164" data-name="Path 164" d="M33.027,435.458c.6.386,1.2.819,1.791,1.269q2.494,1.914,4.979,3.84a1.877,1.877,0,0,1,.269.29c-2.321.036-4.66.036-7.047.036C33.018,439.079,33.018,437.3,33.027,435.458Z" transform="translate(0 -351.535)" fill="#bc002d"/>
    <path id="Path_165" data-name="Path 165" d="M422.461,440.491c.548-.506,1.143-1.016,1.758-1.5,1.712-1.34,3.433-2.669,5.192-4,.042,1.808.042,3.615.042,5.509C427.145,440.5,424.831,440.5,422.461,440.491Z" transform="translate(-342.797 -351.124)" fill="#bc002d"/>
    <path id="Path_166" data-name="Path 166" d="M376.459,455.749c.315-1.131.686-2.253,1.072-3.423a21.429,21.429,0,0,1,2.221,3.374C378.677,455.746,377.6,455.752,376.459,455.749Z" transform="translate(-302.305 -366.382)" fill="#bc002d"/>
    <path id="Path_167" data-name="Path 167" d="M110.459,454.939c.666-1.178,1.388-2.347,2.121-3.534.421,1.235.8,2.337,1.176,3.482C112.677,454.936,111.6,454.942,110.459,454.939Z" transform="translate(-68.165 -365.572)" fill="#bc002d"/>
    <path id="Path_168" data-name="Path 168" d="M186.828,245.929a4.827,4.827,0,0,0,4,2.024c-.216.969.539,1.143,1.131,1.579,1.3.957,2.4.5,3.593-.147.6-.325.919-.712.795-1.3a18.456,18.456,0,0,0,2.326-.568,6.67,6.67,0,0,0,2.7-2.589,2.436,2.436,0,0,1,.577-.416l.184.138c-.188.834-.35,1.676-.574,2.5a16.06,16.06,0,0,1-.61,1.716,1,1,0,0,1-1.491.323c-.181-.156-.322-.442-.517-.479a1.781,1.781,0,0,0-1.148.031.771.771,0,0,0-.093,1.167,2.878,2.878,0,0,0,2.205,1.39c-.759,1.076-1.456,2.064-2.154,3.051-.034.048-.1.078-.124.129-.826,1.523-2.174,1.769-3.743,1.606-.829-.086-1.675-.008-2.513-.021a.785.785,0,0,1-.49-.133,17.886,17.886,0,0,1-3.524-4.626c1.009-.026,1.524-.745,2.08-1.364a.872.872,0,0,0-.033-1.2.964.964,0,0,0-1.253,0c-.257.207-.49.52-.782.594-.766.195-1.008.058-1.256-.712-.418-1.3-.777-2.619-1.165-3.946.746-.236,1.165-.092,1.413.518a4.7,4.7,0,0,0,.468.73m8.095,4.392c-.856,0-1.715.042-2.569-.01-1.177-.072-1.792.716-2.379,1.508a1.138,1.138,0,0,0,.03.883c.189.511.473.986.711,1.479.448.927.873,1.02,1.809.5.615-.342,1.275-.639,1.96-.082a2.694,2.694,0,0,0,.581.277.835.835,0,0,0,1.21-.341,13.821,13.821,0,0,0,.855-1.664,1.3,1.3,0,0,0,.068-1A2.707,2.707,0,0,0,194.922,250.32Z" transform="translate(-133.731 -183.46)" fill="#bc002d"/>
    <path id="Path_169" data-name="Path 169" d="M192.7,172.335c.373.956.741,1.861,1.11,2.768a.542.542,0,0,1-.086.029,2.765,2.765,0,0,1-2.441-.847,10.26,10.26,0,0,0-6.212-2.419,16.282,16.282,0,0,0-4.462.282,10.518,10.518,0,0,0-4.659,2.424c-.745.628-.736.638-2.076.517.18-.422.349-.822.522-1.221a7.457,7.457,0,0,0,.7-2.958,6.08,6.08,0,0,1,.709-3.108,11.006,11.006,0,0,0,8.037,3.36,11.289,11.289,0,0,0,8.065-3.346C192.669,169.264,192.43,170.82,192.7,172.335Z" transform="translate(-123.989 -115.938)" fill="#bc002d"/>
    <path id="Path_170" data-name="Path 170" d="M158.331,277.208a1.867,1.867,0,0,0,.267.372c1.078.881.584,1.878.165,2.818a13.844,13.844,0,0,1-2.859,4.082,1.7,1.7,0,0,1-.229.168c-1.021-.809-2.034-1.586-3.006-2.41a.844.844,0,0,1-.146-.711c.891-3.462,1.808-6.917,2.759-10.525.324.813.549,1.527.884,2.185C156.848,274.531,157.59,275.846,158.331,277.208Z" transform="translate(-105.172 -206.777)" fill="#bc002d"/>
    <path id="Path_171" data-name="Path 171" d="M308.541,283.823a12.793,12.793,0,0,1-2.862-5.012.946.946,0,0,1,.112-.68c.6-.989,1.313-1.918,1.843-2.942.646-1.246,1.15-2.566,1.715-3.854.05-.114.1-.229.215-.5.43,1.659.816,3.162,1.21,4.664.51,1.946,1.014,3.894,1.551,5.833a.669.669,0,0,1-.291.882c-.718.51-1.381,1.1-2.055,1.668C309.234,284.515,309.239,284.521,308.541,283.823Z" transform="translate(-239.981 -206.632)" fill="#bc002d"/>
    <path id="Path_172" data-name="Path 172" d="M225.564,103.311c.3.505-.1.794-.32,1.062a5.57,5.57,0,0,1-4.915,2.231,5.472,5.472,0,0,1-4.5-2.618.749.749,0,0,1-.048-.623,15.494,15.494,0,0,1,.952-1.542,2.014,2.014,0,0,1,1.8-.949c1.355.025,2.712.05,4.065-.007a2.316,2.316,0,0,1,2.284,1.365C225.087,102.589,225.322,102.927,225.564,103.311Z" transform="translate(-160.834 -57.016)" fill="#bc002d"/>
    <path id="Path_173" data-name="Path 173" d="M196.657,367.2c.487-.692.958-1.344,1.476-2.063a2.428,2.428,0,0,0,3.092,2.056,5.178,5.178,0,0,1-.474.467c-.218.167-.462.3-.693.449a.831.831,0,0,0-.308,1.18.76.76,0,0,0,1.105.329,4.96,4.96,0,0,0,2.279-2.118c.058-.1.123-.193.123-.192.7.686,1.383,1.39,2.109,2.05a1.887,1.887,0,0,0,.8.34.666.666,0,0,0,.864-.441c.1-.38.174-.826-.294-1.113a7.428,7.428,0,0,1-1.249-.963,2.411,2.411,0,0,0,3.091-2.138l2.285,3.086a10.923,10.923,0,0,1-5.629,3.013,10.1,10.1,0,0,1-7.368-1.436,17.334,17.334,0,0,1-1.731-1.323c-.1-.087-.093-.42-.013-.575A3.79,3.79,0,0,1,196.657,367.2Z" transform="translate(-143.508 -289.552)" fill="#bc002d"/>
    <path id="Path_174" data-name="Path 174" d="M99.4,151.226l-2.013-3.105,3.327-2.671c.53.817,1.055,1.631,1.586,2.442a9.63,9.63,0,0,0,3.169,2.931.932.932,0,0,1,.464,1.193c-.341,1.052-.749,2.082-1.15,3.175A16.173,16.173,0,0,1,99.4,151.226Z" transform="translate(-56.66 -96.263)" fill="#bc002d"/>
    <path id="Path_175" data-name="Path 175" d="M352.282,146.8c.349.293.662.562.975.832a14.254,14.254,0,0,1-7.282,7.143c-.412-1.112-.833-2.143-1.169-3.2a.969.969,0,0,1,.53-1.223,11.767,11.767,0,0,0,4.369-4.843c.081-.154.135-.322.227-.544C350.724,145.584,351.485,146.18,352.282,146.8Z" transform="translate(-274.391 -95.836)" fill="#bc002d"/>
    <path id="Path_176" data-name="Path 176" d="M179.042,404.125a10.8,10.8,0,0,0,4.727,1.023,11.047,11.047,0,0,0,5.951-1.613,26.6,26.6,0,0,0,2.618-1.909c.351-.285.539-.281.835.025a3.572,3.572,0,0,0,.685.446c-4.652,5.087-14.261,5.781-19.992.07l.984-.718C176.261,402.355,177.63,403.234,179.042,404.125Z" transform="translate(-123.978 -321.572)" fill="#bc002d"/>
    <path id="Path_177" data-name="Path 177" d="M86.74,350.632c.059-.256.112-.463.188-.761l2.157,1.708c-.886.81-1.707,1.575-2.553,2.309-.086.074-.371.021-.495-.068-.967-.7-1.928-1.407-2.869-2.14-1.482-1.155-2.946-2.332-4.483-3.551l1.532-2.156c.77.42,1.606.591,2.1,1.568a37.307,37.307,0,0,0,2.6,4.065.9.9,0,0,0,1.583-.2A6.442,6.442,0,0,0,86.74,350.632Z" transform="translate(-40.197 -272.769)" fill="#bc002d"/>
    <path id="Path_178" data-name="Path 178" d="M351.146,350.215c.113.5.222.957.765,1.057a1.012,1.012,0,0,0,1.117-.588c.883-1.439,1.746-2.9,2.746-4.254A6.877,6.877,0,0,1,357.5,345.2l1.6,2.254c-1.344,1.052-2.641,2.076-3.947,3.088q-1.7,1.315-3.417,2.6a.546.546,0,0,1-.495.06c-.838-.733-1.65-1.5-2.519-2.3l2.1-1.714C350.945,349.556,351.043,349.862,351.146,350.215Z" transform="translate(-277.894 -272.085)" fill="#bc002d"/>
    <path id="Path_179" data-name="Path 179" d="M408.214,406.215c.559-.438,1.076-.863,1.625-1.242a.544.544,0,0,1,.521.019c.427.534.806,1.105,1.225,1.7l-1.656,1.285c-1.8,1.4-3.6,2.793-5.39,4.2-.3.235-.447.22-.64-.12-.318-.56-.691-1.088-1.063-1.665,1.17-.909,2.327-1.81,3.486-2.709C406.941,407.2,407.563,406.725,408.214,406.215Z" transform="translate(-325.522 -324.652)" fill="#bc002d"/>
    <path id="Path_180" data-name="Path 180" d="M42.967,407.315c1.31,1.033,2.589,2.035,3.882,3.049-.355.551-.718,1.062-1.024,1.605-.21.372-.359.423-.718.139-2.125-1.678-4.271-3.33-6.41-4.989-.183-.142-.368-.28-.6-.452.428-.606.818-1.192,1.255-1.74.064-.08.4-.051.525.041C40.911,405.724,41.921,406.508,42.967,407.315Z" transform="translate(-4.474 -324.618)" fill="#bc002d"/>
    <path id="Path_181" data-name="Path 181" d="M390.7,378.038c-1.386,1.087-2.741,2.145-4.1,3.2-.8.627-1.6,1.264-2.428,1.862a.6.6,0,0,1-.574-.026,12.188,12.188,0,0,1-1.039-1.13c-.246-.287-.008-.475.186-.626.849-.663,1.713-1.307,2.565-1.966,1.5-1.161,3-2.327,4.531-3.517l1.332,1.841C391.01,377.8,390.871,377.9,390.7,378.038Z" transform="translate(-307.586 -299.053)" fill="#bc002d"/>
    <path id="Path_182" data-name="Path 182" d="M65.707,383.089c-2.351-1.827-4.67-3.625-7.022-5.448l1.345-1.86c1.749,1.371,3.47,2.727,5.2,4.072.6.469,1.227.912,1.84,1.369.33.247.473.49.085.841-.319.288-.556.666-.873.956C66.165,383.124,65.923,383.09,65.707,383.089Z" transform="translate(-22.593 -299.006)" fill="#bc002d"/>
    <path id="Path_183" data-name="Path 183" d="M218.823,216.873a8.1,8.1,0,0,1,3.886,1.371,10.161,10.161,0,0,0-5.531,2.238,9.737,9.737,0,0,0-5.379-2.2l-.042-.17c.349-.177.69-.373,1.049-.526a8.358,8.358,0,0,1,3.746-.716C217.288,216.9,218.028,216.873,218.823,216.873Z" transform="translate(-157.329 -159.116)" fill="#bc002d"/>
    <path id="Path_184" data-name="Path 184" d="M105.3,295.8a1.743,1.743,0,0,1,.555-1.9c.573.664,1.144,1.307,1.694,1.967.715.857,1.416,1.726,2.114,2.6a.487.487,0,0,1,.125.346c-.338,1.345-.693,2.687-1.051,4.027a2.249,2.249,0,0,1-.259.417c-.613-1.158-1.256-2.193-1.723-3.3C106.194,298.615,105.781,297.218,105.3,295.8Z" transform="translate(-63.54 -226.929)" fill="#bc002d"/>
    <path id="Path_185" data-name="Path 185" d="M370.278,298.741c1.321-1.61,2.625-3.177,3.918-4.732.912.657.681,1.472.476,2.277a22.242,22.242,0,0,1-3.184,7.1C371.053,301.755,370.657,300.269,370.278,298.741Z" transform="translate(-296.864 -227.028)" fill="#bc002d"/>
    <path id="Path_186" data-name="Path 186" d="M360.183,269.319a2.224,2.224,0,0,1-.479-.723c-.189-.616-.329-1.248-.459-1.88a.619.619,0,0,1,.1-.484c.965-1,1.951-1.982,2.995-3.033.41.651.791,1.215,1.118,1.809a.617.617,0,0,1-.1.537c-.641.793-1.312,1.562-1.97,2.342C360.99,268.353,360.6,268.822,360.183,269.319Z" transform="translate(-287.142 -199.909)" fill="#bc002d"/>
    <path id="Path_187" data-name="Path 187" d="M120.379,264.825a.885.885,0,0,1,.459.16c.856.836,1.712,1.674,2.532,2.545a.916.916,0,0,1,.176.71c-.176.861-.413,1.709-.666,2.72-.218-.265-.352-.43-.489-.592-.9-1.064-1.791-2.137-2.71-3.185-.294-.335-.444-.6-.123-1.015C119.866,265.765,120.088,265.3,120.379,264.825Z" transform="translate(-76.015 -201.339)" fill="#bc002d"/>
    <path id="Path_188" data-name="Path 188" d="M139.243,241.4l-2.107-2.083a.587.587,0,0,1,0-.134c.794-1.712.946-1.756,3.013-.85.177.077.353.157.593.264l-.925,3.528C139.566,241.805,139.419,241.618,139.243,241.4Z" transform="translate(-91.645 -177.506)" fill="#bc002d"/>
    <path id="Path_189" data-name="Path 189" d="M347.66,241.234c-.278-1.058-.526-2.083-.78-3.133.8-.31,1.58-.623,2.371-.9a.488.488,0,0,1,.421.17c.3.433.565.893.857,1.369-.887.888-1.743,1.748-2.609,2.6C347.893,241.365,347.768,241.293,347.66,241.234Z" transform="translate(-276.268 -177.016)" fill="#bc002d"/>
    <path id="Path_190" data-name="Path 190" d="M277.214,246.173c1.4-1.169,1.949-1.362,3.271-1.175a2.874,2.874,0,0,1-3.234,1.484C277.2,246.463,277.2,246.3,277.214,246.173Z" transform="translate(-214.941 -183.833)" fill="#bc002d"/>
    <path id="Path_191" data-name="Path 191" d="M212.009,244.959c1.215-.078,1.963.674,2.788,1.333a2.446,2.446,0,0,1-3.127-1.318C211.772,244.969,211.866,244.964,212.009,244.959Z" transform="translate(-157.253 -183.848)" fill="#bc002d"/>
    <path id="Path_192" data-name="Path 192" d="M248.141,269.793a2.073,2.073,0,0,1-.7-.024,9.326,9.326,0,0,1-.968-.428,3.251,3.251,0,0,1,2.618-.057C248.69,269.5,248.434,269.632,248.141,269.793Z" transform="translate(-187.89 -205.047)" fill="#c00029"/>
    <path id="Path_193" data-name="Path 193" d="M273.74,356.987c.69-.167.946.369,1.285.726a.361.361,0,0,1-.526.48A7.729,7.729,0,0,1,273.74,356.987Z" transform="translate(-211.889 -282.434)" fill="#bc002d"/>
    <path id="Path_194" data-name="Path 194" d="M229.819,357.682a1.348,1.348,0,0,0-.153.163c-.17.277-.368.629-.717.308s.019-.551.225-.784c.288-.326.588-.586,1.1-.351C230.126,357.238,229.988,357.444,229.819,357.682Z" transform="translate(-172.341 -282.41)" fill="#bc002d"/>
    <path id="Path_196" data-name="Path 196" d="M245.011,309.065a4.238,4.238,0,0,1,.049.881,2.11,2.11,0,0,0-3.072-.115l-.4-.778C242.778,309.053,243.87,309.053,245.011,309.065Z" transform="translate(-183.589 -240.27)" fill="#c00029"/>
  </g>
</svg>
