<svg id="whisk" xmlns="http://www.w3.org/2000/svg" width="29.505" height="51.372" viewBox="0 0 29.505 51.372">
  <path id="Path_84" data-name="Path 84" d="M175.25,383.2c-.125-.073-.191-.178-.282-.214a4.473,4.473,0,0,1-2.878-3.318,1.765,1.765,0,0,1-.077-.389q-.006-5.314,0-10.628c0-.067.014-.133.026-.24h16.937v.6c0,3.338.022,6.677-.011,10.014a4.042,4.042,0,0,1-1.714,3.256c-.438.335-.946.575-1.4.889C182.353,383.2,178.825,383.2,175.25,383.2Z" transform="translate(-165.735 -331.824)" fill="#6e6e6e"/>
  <path id="Path_85" data-name="Path 85" d="M179.926,1c.143.135.217.294.337.4.727.653.606,2.215-.324,2.482-.906.26-.735.8-.672,1.369.181,1.637.408,3.269.6,4.9.154,1.338.269,2.68.421,4.019.191,1.687.407,3.372.6,5.059.118,1.036.2,2.077.32,3.113.121,1.069.271,2.135.393,3.2.117,1.021.213,2.043.32,3.065.022.215.05.43.079.68h-3.214c-.115-1.126-.219-2.247-.347-3.365-.153-1.335-.336-2.668-.49-4-.121-1.054-.209-2.112-.328-3.167s-.264-2.1-.384-3.152-.214-2.078-.331-3.116c-.12-1.068-.259-2.135-.381-3.2-.117-1.02-.224-2.042-.333-3.063-.07-.653-.155-1.3-.2-1.959a3.184,3.184,0,0,1,2.078-3.089c.041-.014.068-.072.083-.146C178.714,1,179.3,1,179.926,1Z" transform="translate(-169.419 -1)" fill="#6e6e6e"/>
  <path id="Path_86" data-name="Path 86" d="M283.028,1c.11.069.16.169.237.2a3.364,3.364,0,0,1,1.9,3.694c-.184,1.007-.238,2.038-.354,3.058-.126,1.1-.259,2.206-.384,3.31-.115,1.02-.218,2.041-.333,3.061-.122,1.087-.253,2.173-.378,3.26-.115,1-.223,2.007-.338,3.01-.13,1.137-.27,2.272-.4,3.409-.114,1.037-.21,2.077-.322,3.115-.077.718-.166,1.435-.253,2.182h-3.2c.2-1.653.4-3.3.585-4.94.152-1.355.267-2.714.421-4.069.152-1.336.345-2.667.5-4,.123-1.072.2-2.148.32-3.22.152-1.335.34-2.667.494-4,.122-1.054.21-2.112.322-3.168.05-.465.145-.927.171-1.393a.511.511,0,0,0-.239-.409c-1.546-.583-1.807-1.847-.587-2.911a.215.215,0,0,0,.063-.157C281.817,1,282.4,1,283.028,1Z" transform="translate(-262.276 -1)" fill="#6e6e6e"/>
  <path id="Path_87" data-name="Path 87" d="M244.212,1c.066.068.063.177.106.2.6.322.664.862.664,1.469q-.012,12.962-.006,25.925v.7h-3.068v-.667q0-12.783-.011-25.567a2.144,2.144,0,0,1,.75-2.026C243.137,1,243.65,1,244.212,1Z" transform="translate(-228.684 -1)" fill="#6e6e6e"/>
  <path id="Path_88" data-name="Path 88" d="M323.878,18.854c-.445,1.954-.889,3.863-1.329,5.774q-.463,2.008-.919,4.018-.781,3.425-1.564,6.862H316.8l5.581-24.432a1.634,1.634,0,0,1-1.048-2.642,1.221,1.221,0,0,1,.767-.5c1.663-.172,2.862.247,3.419,2.079a2.923,2.923,0,0,1,.068,1.4c-.514,2.408-1.083,4.8-1.634,7.2C323.939,18.688,323.906,18.749,323.878,18.854Z" transform="translate(-296.138 -7.198)" fill="#6e6e6e"/>
  <path id="Path_89" data-name="Path 89" d="M113.646,24.1c-.378-1.659-.747-3.275-1.124-4.89-.6-2.592-1.262-5.172-1.8-7.777a2.831,2.831,0,0,1,2.821-3.519c.528.026,1.06-.027,1.425.471a1.658,1.658,0,0,1-1.047,2.681L119.5,35.5H116.23Q114.949,29.853,113.646,24.1Z" transform="translate(-110.652 -7.201)" fill="#6e6e6e"/>
  <path id="Path_90" data-name="Path 90" d="M180.887,311.435H172.34v-3.027h16.895v3.027Z" transform="translate(-166.03 -277.6)" fill="#6e6e6e"/>
</svg>
