<svg id="yen-symbol" xmlns="http://www.w3.org/2000/svg" width="39.091" height="52.743" viewBox="0 0 39.091 52.743">
  <path id="Path_91" data-name="Path 91" d="M96.85,1.025C99.728,1,102.58,1,105.481,1a1.389,1.389,0,0,1,.562,2.128c-1.225,2.341-2.5,4.654-3.757,6.979q-2.26,4.19-4.529,8.375-1.225,2.263-2.448,4.528c-.049.091-.1.179-.147.271-.288.592-.155.83.513.838,1.63.019,3.26,0,4.891.007.515,0,1.03-.008,1.544,0a1.572,1.572,0,0,1,1.611,1.587c.017,1.253.02,2.506,0,3.758a1.439,1.439,0,0,1-1.593,1.551c-3.037.007-6.075,0-9.112,0-1.222,0-1.347.131-1.34,1.368a4.234,4.234,0,0,0,.016.463c.056.483.236.669.711.725a6.04,6.04,0,0,0,.72.018q4.376,0,8.752,0a1.633,1.633,0,0,1,1.852,1.867c0,1.115.007,2.231,0,3.346a1.535,1.535,0,0,1-1.7,1.685c-2.849.007-5.7,0-8.546,0-.223,0-.446,0-.669,0-.941.013-1.122.186-1.129,1.112-.009,1.184,0,2.368,0,3.552q0,3.449,0,6.9a4.959,4.959,0,0,1-.012.566,1.115,1.115,0,0,1-.83,1.079c-2.611.028-5.188.028-7.814.028-.724-.285-.829-.843-.827-1.5.013-3.381.006-6.762.006-10.143,0-.206,0-.412,0-.618-.026-.746-.219-.943-.956-.972-.206-.008-.412,0-.618,0H72.073a2.453,2.453,0,0,1-.911-.124,1.277,1.277,0,0,1-.91-1.29c-.011-1.3-.006-2.609,0-3.913a1.435,1.435,0,0,1,1.508-1.571c.189-.009.378,0,.566,0h8.5a5.365,5.365,0,0,0,.72-.027.663.663,0,0,0,.631-.635,5.976,5.976,0,0,0,0-1.233.672.672,0,0,0-.666-.657,6.719,6.719,0,0,0-.72-.022c-2.969,0-5.939-.032-8.907.018a1.557,1.557,0,0,1-1.648-1.654c.068-1.2.014-2.4.017-3.6a1.467,1.467,0,0,1,1.677-1.66c1.939-.009,3.879,0,5.818,0,.189,0,.378.007.566-.01.533-.048.663-.271.412-.754-.467-.9-.972-1.776-1.465-2.66-2.741-4.916-5.452-9.848-8.191-14.764-.418-.749-.83-1.5-1.252-2.249a7.478,7.478,0,0,1-.442-.872A1.306,1.306,0,0,1,68,1.029C70.919,1,73.805,1,76.74,1a1.657,1.657,0,0,1,.9,1Q80.7,8.1,83.8,14.177c1.126,2.22,2.248,4.44,3.227,6.729.051.119.066.306.235.3.154-.008.184-.187.239-.307,1.25-2.73,2.48-5.47,3.725-8.2q1.942-4.264,3.877-8.53c.376-.828.743-1.66,1.133-2.482A1.31,1.31,0,0,1,96.85,1.025Z" transform="translate(-67.232 -1)" fill="#6e6e6e"/>
</svg>
