<svg id="fan" xmlns="http://www.w3.org/2000/svg" width="61.224" height="50.563" viewBox="0 0 61.224 50.563">
  <path id="Path_14" data-name="Path 14" d="M342.173,202.068c1.509-1.434,2.974-2.84,4.466-4.216a.722.722,0,0,1,.671-.087c1.426.826,2.849,1.663,4.224,2.573a1.645,1.645,0,0,1,.454,1.044c.266,1.769.5,3.543.7,5.321a.881.881,0,0,1-.422.7c-2.645,1.158-5.306,2.277-7.964,3.4q-3.887,1.649-7.775,3.3c-.262.111-.533.2-.879.33-.224-.541-.462-1.059-.653-1.595a2.14,2.14,0,0,0-1.358-1.438c-.852-.312-.8-.37-.13-.981.946-.864,1.859-1.766,2.778-2.661,1.408-1.371,2.807-2.752,4.216-4.121C341.033,203.113,341.59,202.614,342.173,202.068Z" transform="translate(-291.462 -182.327)" fill="#6e6e6e"/>
  <path id="Path_15" data-name="Path 15" d="M64.253,212.851c-.178.4-.326.742-.494,1.133L46.7,206.737c.127-1.037.258-2.14.4-3.241.119-.936.3-1.868.351-2.808a1.064,1.064,0,0,1,.6-.975c1.32-.777,2.638-1.56,3.926-2.389a.628.628,0,0,1,.934.1q2.221,2.2,4.462,4.387,1.714,1.677,3.438,3.344,2.513,2.419,5.037,4.826c.172.165.325.35.588.637A2.774,2.774,0,0,0,64.253,212.851Z" transform="translate(-46.699 -181.853)" fill="#6e6e6e"/>
  <path id="Path_16" data-name="Path 16" d="M322.25,150.491c-2.235,2.166-4.431,4.3-6.634,6.421q-2.428,2.34-4.872,4.663c-.732.7-1.484,1.372-2.326,2.148-.644-1.175-1.344-2.3-3.059-1.932.877-1.791,1.666-3.419,2.47-5.039q2.387-4.808,4.789-9.608c.605-1.209,1.222-2.412,1.863-3.6.091-.168.366-.371.521-.345q2.354.4,4.692.892a.932.932,0,0,1,.545.491q1.089,2.443,2.116,4.914C322.484,149.8,322.719,150.166,322.25,150.491Z" transform="translate(-267.833 -135.839)" fill="#6e6e6e"/>
  <path id="Path_17" data-name="Path 17" d="M93.263,151.22a1.369,1.369,0,0,1-.459-1.959c.711-1.5,1.317-3.056,2-4.573a.968.968,0,0,1,.594-.488c1.4-.284,2.821-.456,4.2-.8.6-.149.793.015,1.033.506q3.448,7.045,6.937,14.07c.624,1.257,1.289,2.493,2.027,3.917-1.719-.269-2.427.806-3.015,2.061-.648-.584-1.231-1.078-1.778-1.61-1.65-1.607-3.28-3.236-4.93-4.844q-3.125-3.045-6.27-6.069A2.476,2.476,0,0,0,93.263,151.22Z" transform="translate(-85.923 -135.971)" fill="#6e6e6e"/>
  <path id="Path_18" data-name="Path 18" d="M189.08,269.814c1.559-.649,3.111-1.319,4.68-1.943,1.4-.556,1.409-.534,1.837,1.142l-8.907,3.808a4.2,4.2,0,0,0-1.607-2.974,3.539,3.539,0,0,0-2.547-.776,4.007,4.007,0,0,0-3.552,3.679l-5.48-2.312c-.968-.408-1.925-.85-2.911-1.207-.518-.188-.647-.415-.387-.9.158-.294.273-.612.455-1.027l5.945,2.5.069-.121-5.5-3.691c.677-.308,1.182-.575,1.715-.756a.881.881,0,0,1,.615.19c1.247.805,2.481,1.631,3.722,2.445a.546.546,0,0,0,.488.051l-3.341-4.757c.887-.691,1.7-.637,2.27.147,1.114,1.529,2.2,3.08,3.42,4.6a5.313,5.313,0,0,0-.107-.546c-.552-1.82-1.088-3.646-1.68-5.453-.149-.454-.2-.8.25-1.035a1.549,1.549,0,0,1,1.406.526c.491,1.511.968,3.026,1.447,4.541a5.779,5.779,0,0,0,.58,1.411v-4.875a12.4,12.4,0,0,0-.009-1.325.74.74,0,0,1,.855-.888.84.84,0,0,1,.9.906c-.025,2.06-.009,4.121.107,6.211.348-1.109.693-2.219,1.046-3.327.279-.874.56-1.747.858-2.615a1.2,1.2,0,0,1,1.294-.547c.463.218.517.538.348,1.054-.667,2.034-1.269,4.09-1.8,6.193q1.028-1.46,2.056-2.92c.51-.727,1.008-1.463,1.522-2.187.278-.393,1.664-.474,1.894-.07a.9.9,0,0,1-.134.749c-.9,1.307-1.839,2.588-2.762,3.88-.055.077-.085.172-.184.327a.735.735,0,0,0-.1.222l.208-.094c1.215-.8,2.461-1.546,3.631-2.4a1.345,1.345,0,0,1,1.787-.1,7.691,7.691,0,0,0,.948.47c-1.852,1.242-3.622,2.431-5.456,3.682a2.423,2.423,0,0,1-.245.187l.043.081.307-.144M177.72,268.18l.1.034.028-.111C177.8,268.1,177.74,268.1,177.72,268.18Z" transform="translate(-152.176 -235.659)" fill="#6e6e6e"/>
  <path id="Path_19" data-name="Path 19" d="M156.858,107.656a.838.838,0,0,1,.979-.307c1.392.32,2.806.546,4.213.8.392.069.6.189.657.674.125,1.149.373,2.283.532,3.429a1.671,1.671,0,0,1-.3,1.359,7.011,7.011,0,0,0,1.221,9.812,2.469,2.469,0,0,1,1.023,1.852c.1,1.15.361,2.286.539,3.43a4.793,4.793,0,0,1,.005.725,4.777,4.777,0,0,0-1.743-.056,5.712,5.712,0,0,0-1.434,1.19,5.341,5.341,0,0,1-.294-.469c-2.882-5.844-5.75-11.695-8.658-17.525-.3-.592-.021-.914.275-1.275.861-1.048,1.744-2.077,2.615-3.117C156.611,108.024,156.71,107.855,156.858,107.656Z" transform="translate(-137.98 -105.237)" fill="#6e6e6e"/>
  <path id="Path_20" data-name="Path 20" d="M288.757,110.059a16.062,16.062,0,0,0,1.1,1.39c.316.316.249.543.081.879q-2.942,5.879-5.864,11.768c-.962,1.926-1.943,3.841-2.909,5.764-.18.358-.4.635-.721.185a1.867,1.867,0,0,0-2.64-.543c.072-.772.117-1.388.19-2,.077-.648.168-1.3.278-1.938a3.01,3.01,0,0,1,1.062-2.241,6.643,6.643,0,0,0,2.407-3.634,6.844,6.844,0,0,0-1.023-5.938,2.632,2.632,0,0,1-.4-2c.115-.935.33-1.859.406-2.8.08-.971.807-.936,1.428-1.064,1.165-.241,2.34-.432,3.5-.676a.773.773,0,0,1,.96.332C287.252,108.422,288.009,109.2,288.757,110.059Z" transform="translate(-244.274 -105.122)" fill="#6e6e6e"/>
  <path id="Path_21" data-name="Path 21" d="M236.666,148.759c-.149,1.171-1.116,1.153-1.8,1.213a16.024,16.024,0,0,1-2.839-.239c-.6-.057-.755-.5-.83-.994-.438-2.866-.849-5.736-1.314-8.6-.128-.786.411-1.056.876-1.312a5.878,5.878,0,0,1,6.25,0c1.075.651,1.056.806.817,2.206C237.389,143.579,237.059,146.143,236.666,148.759Z" transform="translate(-203.288 -131.348)" fill="#6e6e6e"/>
  <path id="Path_22" data-name="Path 22" d="M333.6,358.754c.23-.056.467-.094.69-.172,1.229-.428.936-.427,1.4.7.261.634-.1.769-.488.917a10.581,10.581,0,0,0-1.823.762h2.481v1.719h-2.48l-.026.159,2.511.872a11.038,11.038,0,0,1-.428,1.357.636.636,0,0,1-.556.2,8.129,8.129,0,0,1-1.234-.4.913.913,0,0,0-.27-.051l.1.2,1.8,1.392c-.92,1.543-.917,1.539-2.266.523-1.261-.95-2.533-1.884-3.79-2.84-.286-.217-.5-.425-.265-.909a3.593,3.593,0,0,0-.2-3.273l5.52-4.159,1.028,1.466c-.616.469-1.188.9-1.824,1.4a2.615,2.615,0,0,1-.249.187l.044.084Z" transform="translate(-287.842 -317.083)" fill="#6e6e6e"/>
  <path id="Path_23" data-name="Path 23" d="M233.761,96.036c-.063,1-.161,1.961-.274,2.919-.044.375-.121.746-.193,1.182-2.871-1.839-5.667-1.96-8.522.034l-.629-4.067c1.093-.68,2.23-1.365,3.344-2.086,1.541-1,1.6-1.007,3.157,0C231.666,94.681,232.694,95.335,233.761,96.036Z" transform="translate(-198.4 -93.266)" fill="#6e6e6e"/>
  <path id="Path_24" data-name="Path 24" d="M240.081,331.951a3.08,3.08,0,0,1,.512-3.49,2.878,2.878,0,0,1,3.632.026,2.763,2.763,0,0,1,.324,3.732,2.62,2.62,0,0,1-3.868.431A5.374,5.374,0,0,1,240.081,331.951Z" transform="translate(-211.755 -293.269)" fill="#6e6e6e"/>
  <path id="Path_25" data-name="Path 25" d="M245.863,225.842c.606-.04.33.408.318.573-.052.7-.174,1.389-.285,2.081-.1.619-.217,1.234-.353,2a2.243,2.243,0,0,0-3.353-.028l-.7-4.648A8.016,8.016,0,0,0,245.863,225.842Z" transform="translate(-213.229 -206.288)" fill="#6e6e6e"/>
  <path id="Path_26" data-name="Path 26" d="M300.927,385.595a2.006,2.006,0,0,1-2.157,1.569,2.046,2.046,0,0,1,.226-4.079A2.016,2.016,0,0,1,300.927,385.595Z" transform="translate(-260.641 -340.381)" fill="#6e6e6e"/>
  <path id="Path_27" data-name="Path 27" d="M255.365,374.811c.735.013,1.409.013,2.142.013v1.685c-4.045.741-5.911-1.866-5.346-4.456a4.8,4.8,0,0,0,.765.116,5.783,5.783,0,0,0,.85-.131A2.434,2.434,0,0,0,255.365,374.811Z" transform="translate(-222.268 -330.966)" fill="#6e6e6e"/>
  <path id="Path_28" data-name="Path 28" d="M217.68,164.691a5.8,5.8,0,0,1,.174-6.054l1.118,7.429-.188.118C218.428,165.7,218.072,165.216,217.68,164.691Z" transform="translate(-192.219 -149.006)" fill="#6e6e6e"/>
  <path id="Path_29" data-name="Path 29" d="M285.7,165.68c-.238.291-.438.542-.639.794l-.218-.08q.536-3.644,1.072-7.289C287.3,159.832,287.2,163.334,285.7,165.68Z" transform="translate(-250.295 -149.405)" fill="#6e6e6e"/>
  <path id="Path_30" data-name="Path 30" d="M298.984,324.546a.952.952,0,0,1-.28.172l-.043-.081c.06-.041.121-.082.211-.149C298.921,324.481,298.939,324.5,298.984,324.546Z" transform="translate(-262.107 -290.42)" fill="#6e6e6e"/>
  <path id="Path_31" data-name="Path 31" d="M292.819,312.543a.413.413,0,0,1-.18.122.709.709,0,0,1,.069-.18C292.754,312.478,292.773,312.5,292.819,312.543Z" transform="translate(-256.958 -280.185)" fill="#6e6e6e"/>
  <path id="Path_32" data-name="Path 32" d="M222.649,313.5a.179.179,0,0,1,.151-.033l-.028.111A.256.256,0,0,1,222.649,313.5Z" transform="translate(-197.123 -281.021)" fill="#6e6e6e"/>
  <path id="Path_33" data-name="Path 33" d="M359.943,375.534a.962.962,0,0,1-.287.17l-.043-.084c.062-.041.123-.083.217-.149C359.879,375.466,359.9,375.485,359.943,375.534Z" transform="translate(-314.216 -333.892)" fill="#6e6e6e"/>
  <path id="Path_34" data-name="Path 34" d="M360.7,417.433a.359.359,0,0,1-.138-.172.577.577,0,0,1,.215.042C360.778,417.358,360.756,417.379,360.7,417.433Z" transform="translate(-315.028 -369.526)" fill="#6e6e6e"/>
</svg>
